<svg xmlns="http://www.w3.org/2000/svg">
	<symbol id="magnifying" viewBox="0 0 422 416">
		<g>
			<path
				d="M412.827 362.621L347.834 297.62C346.554 296.34 344.816 295.62 343.007 295.62C341.198 295.62 339.461 296.34 338.181 297.62L336.179 299.622L303.564 267.008C345.876 213.681 344.717 137.078 300.172 84.9851L303.803 79.5392C306.85 81.3397 310.357 82.4422 314.144 82.4422C325.437 82.4422 334.624 73.2552 334.624 61.9622C334.624 60.358 334.394 58.8134 334.044 57.3133L381.764 35.6215C385.459 39.2362 390.499 41.4822 396.064 41.4822C407.357 41.4822 416.544 32.2952 416.544 21.0022C416.544 9.7092 407.357 0.522217 396.064 0.522217C384.771 0.522217 375.584 9.7092 375.584 21.0022C375.584 21.7992 375.731 22.5553 375.82 23.3267L326.507 45.7421C323.061 43.1087 318.808 41.4805 314.146 41.4805C302.853 41.4805 293.666 50.6675 293.666 61.9605C293.666 64.2304 294.125 66.3757 294.809 68.4168L290.572 74.7742C234.526 20.8554 145.124 21.4101 89.8949 76.6395C45.2366 121.3 36.3687 188.29 63.0678 241.944L29.3731 275.637C26.7039 274.36 23.7496 273.585 20.5974 273.585C9.30442 273.585 0.117432 282.772 0.117432 294.065C0.117432 305.358 9.30442 314.545 20.5974 314.545C31.8904 314.545 41.0774 305.358 41.0774 294.065C41.0774 290.913 40.3026 287.961 39.026 285.29L70.0123 254.305C75.6067 263.195 82.1603 271.65 89.8949 279.385C117.842 307.331 154.555 321.304 191.264 321.304C219.675 321.304 248.04 312.832 272.389 296.093L306.048 329.752L304.047 331.752C301.382 334.418 301.382 338.739 304.047 341.405L369.041 406.405C374.888 412.252 382.663 415.478 390.934 415.478C399.208 415.478 406.98 412.25 412.827 406.405C424.902 394.334 424.902 374.694 412.827 362.621V362.621ZM20.5974 300.894C16.8342 300.894 13.7708 297.834 13.7708 294.067C13.7708 290.301 16.8342 287.241 20.5974 287.241C24.3606 287.241 27.4241 290.301 27.4241 294.067C27.4241 297.834 24.3606 300.894 20.5974 300.894ZM315.701 320.101L283.363 287.764C286.529 285.102 289.655 282.366 292.633 279.388C293.309 278.712 293.874 277.97 294.533 277.286L326.524 309.277L315.701 320.101ZM396.064 14.1738C399.827 14.1738 402.891 17.2339 402.891 21.0005C402.891 24.7671 399.827 27.8272 396.064 27.8272C392.301 27.8272 389.237 24.7671 389.237 21.0005C389.237 17.2339 392.301 14.1738 396.064 14.1738ZM314.144 55.1338C317.907 55.1338 320.971 58.1939 320.971 61.9605C320.971 65.7271 317.907 68.7872 314.144 68.7872C310.381 68.7872 307.317 65.7271 307.317 61.9605C307.317 58.1939 310.381 55.1338 314.144 55.1338ZM99.5478 86.2942C124.834 61.015 158.047 48.3669 191.264 48.3669C224.457 48.3669 257.645 60.9979 282.924 86.2413L262.504 116.873C261.526 116.729 260.548 116.572 259.531 116.572C248.238 116.572 239.051 125.759 239.051 137.052C239.051 140.204 239.826 143.155 241.102 145.824L216.885 170.045C211.488 166.468 205.037 164.359 198.092 164.359C179.974 164.359 165.251 178.591 164.167 196.441L120.567 202.67C117.133 196.163 110.377 191.665 102.521 191.665C91.2278 191.665 82.0409 200.852 82.0409 212.145C82.0409 215.299 82.8157 218.252 84.094 220.923L73.3403 231.675C51.6502 183.866 60.2911 125.549 99.5478 86.2942V86.2942ZM252.704 137.054C252.704 133.287 255.768 130.227 259.531 130.227C263.294 130.227 266.357 133.287 266.357 137.054C266.357 140.82 263.294 143.881 259.531 143.881C255.768 143.881 252.704 140.82 252.704 137.054ZM218.571 198.494C218.571 209.787 209.384 218.974 198.091 218.974C186.798 218.974 177.611 209.787 177.611 198.494C177.611 187.201 186.798 178.014 198.091 178.014C209.384 178.014 218.571 187.199 218.571 198.494ZM95.6908 212.147C95.6908 208.381 98.7542 205.321 102.517 205.321C106.281 205.321 109.344 208.381 109.344 212.147C109.344 215.914 106.281 218.974 102.517 218.974C98.7542 218.974 95.6908 215.914 95.6908 212.147ZM99.5478 269.734C91.7791 261.965 85.3518 253.385 79.9707 244.35L93.7469 230.576C96.4161 231.852 99.3686 232.627 102.519 232.627C112.431 232.627 120.714 225.546 122.591 216.178L166.086 209.964C170.823 223.13 183.316 232.627 198.092 232.627C216.912 232.627 232.226 217.313 232.226 198.494C232.226 191.549 230.116 185.097 226.539 179.7L250.757 155.481C253.428 156.759 256.38 157.534 259.532 157.534C270.825 157.534 280.012 148.347 280.012 137.054C280.012 131.753 277.935 126.959 274.618 123.319L292.328 96.7526C333.301 147.64 330.207 222.508 282.982 269.734C232.407 320.3 150.121 320.3 99.5478 269.734V269.734ZM403.174 396.754C396.634 403.287 385.234 403.287 378.694 396.754L378.409 396.469L387.237 387.64C389.903 384.974 389.903 380.653 387.237 377.987C384.571 375.322 380.25 375.322 377.584 377.987L368.756 386.816L364.755 382.816L373.582 373.989C376.248 371.323 376.248 367.002 373.582 364.336C370.916 361.67 366.595 361.67 363.929 364.336L355.102 373.163L351.102 369.162L359.929 360.335C362.595 357.67 362.595 353.348 359.929 350.682C357.263 348.017 352.942 348.017 350.276 350.682L341.449 359.509L337.449 355.509L346.276 346.682C348.941 344.016 348.941 339.695 346.276 337.029C343.61 334.363 339.288 334.363 336.623 337.029L327.797 345.854L318.527 336.582L343.007 312.102L403.174 372.275C409.924 379.02 409.924 390.007 403.174 396.754V396.754Z" />
			<path
				d="M298.881 134.494C297.472 131.007 293.495 129.314 289.995 130.727C286.498 132.134 284.808 136.113 286.221 139.614C301.648 177.801 292.799 221.3 263.671 250.421C244.331 269.761 218.619 280.414 191.264 280.414C163.91 280.414 138.197 269.761 118.854 250.421C116.213 247.781 113.677 244.954 111.317 242.014C108.957 239.087 104.661 238.621 101.72 240.975C98.7798 243.335 98.3139 247.634 100.678 250.575C103.347 253.894 106.217 257.094 109.204 260.074C131.121 281.994 160.264 294.067 191.264 294.067C222.264 294.067 251.407 281.994 273.324 260.074C306.331 227.074 316.364 177.78 298.881 134.494V134.494Z" />
			<path
				d="M82.3037 188.254C86.0703 188.134 89.0296 184.98 88.9136 181.214C88.0261 152.654 98.6604 125.8 118.857 105.607C154.523 69.946 210.07 65.3995 250.95 94.7797C254.01 97.0001 258.28 96.2867 260.476 93.2267C262.676 90.1666 261.98 85.8999 258.916 83.7C212.58 50.374 149.613 55.5264 109.202 95.9539C86.6454 118.508 74.2755 149.741 75.2654 181.641C75.378 185.334 78.4125 188.254 82.0852 188.254H82.3037Z" />
		</g>
	</symbol>

	<symbol id="devices" viewBox="0 0 496 368">
		<g>
			<path
				d="M56 328H32C29.8783 328 27.8434 328.843 26.3431 330.343C24.8429 331.843 24 333.878 24 336C24 338.122 24.8429 340.157 26.3431 341.657C27.8434 343.157 29.8783 344 32 344H56C58.1217 344 60.1566 343.157 61.6569 341.657C63.1571 340.157 64 338.122 64 336C64 333.878 63.1571 331.843 61.6569 330.343C60.1566 328.843 58.1217 328 56 328V328Z" />
			<path
				d="M88 328H80C77.8783 328 75.8434 328.843 74.3431 330.343C72.8429 331.843 72 333.878 72 336C72 338.122 72.8429 340.157 74.3431 341.657C75.8434 343.157 77.8783 344 80 344H88C90.1217 344 92.1566 343.157 93.6569 341.657C95.1571 340.157 96 338.122 96 336C96 333.878 95.1571 331.843 93.6569 330.343C92.1566 328.843 90.1217 328 88 328Z" />
			<path
				d="M464 96H448V32C447.989 23.5165 444.614 15.3836 438.615 9.38486C432.616 3.3861 424.484 0.0111128 416 0H80C71.516 0.00952843 63.3822 3.38401 57.3831 9.38311C51.384 15.3822 48.0095 23.516 48 32V176H32C23.516 176.01 15.3822 179.384 9.38311 185.383C3.38401 191.382 0.00952843 199.516 0 208V336C0.00952843 344.484 3.38401 352.618 9.38311 358.617C15.3822 364.616 23.516 367.99 32 368H112C120.484 367.989 128.616 364.614 134.615 358.615C140.614 352.616 143.989 344.484 144 336V312H213.75L209.75 328H184C181.878 328 179.843 328.843 178.343 330.343C176.843 331.843 176 333.878 176 336V360C176 362.122 176.843 364.157 178.343 365.657C179.843 367.157 181.878 368 184 368H464C472.484 367.989 480.616 364.614 486.615 358.615C492.614 352.616 495.989 344.484 496 336V128C495.989 119.516 492.614 111.384 486.615 105.385C480.616 99.3861 472.484 96.0111 464 96ZM128 336C127.994 340.242 126.307 344.308 123.308 347.308C120.308 350.307 116.242 351.994 112 352H32C27.7582 351.994 23.6918 350.307 20.6924 347.308C17.6931 344.308 16.0056 340.242 16 336V208C16.0056 203.758 17.6931 199.692 20.6924 196.692C23.6918 193.693 27.7582 192.006 32 192H42.23L48.41 210.53C48.941 212.123 49.9598 213.508 51.322 214.49C52.6843 215.472 54.3209 216 56 216H88C89.6791 216 91.3157 215.472 92.678 214.49C94.0402 213.508 95.059 212.123 95.59 210.53L101.77 192H112C116.242 192.006 120.308 193.693 123.308 196.692C126.307 199.692 127.994 203.758 128 208V336ZM59.1 192H84.9L82.23 200H61.77L59.1 192ZM144 296V272H288V296H144ZM288 312V328H286.25L282.25 312H288ZM269.75 328H226.25L230.25 312H265.75L269.75 328ZM192 352V344H289.01C289.742 346.804 290.853 349.495 292.31 352H192ZM288 128V256H144V208C143.989 199.516 140.614 191.384 134.615 185.385C128.616 179.386 120.484 176.011 112 176H64V32C64.0056 27.7582 65.6931 23.6918 68.6924 20.6924C71.6918 17.6931 75.7582 16.0056 80 16H416C420.242 16.0056 424.308 17.6931 427.308 20.6924C430.307 23.6918 431.994 27.7582 432 32V96H320C311.516 96.0111 303.384 99.3861 297.385 105.385C291.386 111.384 288.011 119.516 288 128ZM480 336C479.994 340.242 478.307 344.308 475.308 347.308C472.308 350.307 468.242 351.994 464 352H320C315.758 351.994 311.692 350.307 308.692 347.308C305.693 344.308 304.006 340.242 304 336V128C304.006 123.758 305.693 119.692 308.692 116.692C311.692 113.693 315.758 112.006 320 112H464C468.242 112.006 472.308 113.693 475.308 116.692C478.307 119.692 479.994 123.758 480 128V336Z" />
			<path
				d="M464 120H320C317.878 120 315.843 120.843 314.343 122.343C312.843 123.843 312 125.878 312 128V312C312 314.122 312.843 316.157 314.343 317.657C315.843 319.157 317.878 320 320 320H464C466.122 320 468.157 319.157 469.657 317.657C471.157 316.157 472 314.122 472 312V128C472 125.878 471.157 123.843 469.657 122.343C468.157 120.843 466.122 120 464 120ZM456 304H328V136H456V304Z" />
			<path
				d="M384 344C388.418 344 392 340.418 392 336C392 331.582 388.418 328 384 328C379.582 328 376 331.582 376 336C376 340.418 379.582 344 384 344Z" />
		</g>
	</symbol>

	<symbol id="diamond" viewBox="0 0 426 354">
		<g>
			<path
				d="M213 353.64C211.846 353.64 210.704 353.396 209.651 352.924C208.597 352.452 207.655 351.762 206.887 350.901L2.08676 121.525C0.809681 120.094 0.0753358 118.26 0.0117127 116.342C-0.0519104 114.425 0.559223 112.547 1.7386 111.034L85.4301 3.54466C86.1959 2.56125 87.1759 1.76554 88.2956 1.2181C89.4153 0.670669 90.6452 0.385949 91.8916 0.38562H334.109C335.355 0.385949 336.585 0.670669 337.704 1.2181C338.824 1.76554 339.804 2.56125 340.57 3.54466L424.262 111.003C425.441 112.516 426.052 114.395 425.988 116.312C425.925 118.229 425.19 120.063 423.913 121.494L219.113 350.87C218.348 351.737 217.407 352.432 216.353 352.91C215.3 353.387 214.157 353.636 213 353.64V353.64ZM18.8599 115.678L213 333.119L407.14 115.678L330.105 16.7696H95.8954L18.8599 115.678Z" />
			<path
				d="M412.68 121.131H13.3457C11.173 121.131 9.08936 120.267 7.55307 118.731C6.01677 117.195 5.15369 115.111 5.15369 112.939C5.15369 110.766 6.01677 108.682 7.55307 107.146C9.08936 105.61 11.173 104.747 13.3457 104.747H412.68C414.853 104.747 416.936 105.61 418.473 107.146C420.009 108.682 420.872 110.766 420.872 112.939C420.872 115.111 420.009 117.195 418.473 118.731C416.936 120.267 414.853 121.131 412.68 121.131Z" />
			<path
				d="M213 353.609C211.313 353.61 209.668 353.09 208.288 352.121C206.908 351.151 205.861 349.779 205.289 348.192L84.186 11.3527C83.4753 9.31429 83.598 7.0778 84.5273 5.12937C85.4566 3.18095 87.1175 1.67808 89.1488 0.94746C91.1801 0.216839 93.4176 0.317525 95.3751 1.22763C97.3326 2.13774 98.8517 3.7837 99.6023 5.80772L213 321.205L326.398 5.81284C327.148 3.78882 328.667 2.14286 330.625 1.23276C332.582 0.32265 334.82 0.221957 336.851 0.952577C338.883 1.6832 340.543 3.18607 341.473 5.1345C342.402 7.08293 342.525 9.31941 341.814 11.3578L220.711 348.192C220.139 349.779 219.092 351.151 217.712 352.121C216.332 353.09 214.687 353.61 213 353.609V353.609Z" />
			<path
				d="M296.589 121.131C295.361 121.133 294.148 120.858 293.04 120.326C291.933 119.794 290.96 119.019 290.194 118.059L206.605 13.7027C205.247 12.0053 204.619 9.83804 204.859 7.67762C205.099 5.5172 206.188 3.54062 207.885 2.18272C208.726 1.51035 209.69 1.01011 210.724 0.710551C211.758 0.410994 212.841 0.317989 213.91 0.436848C216.071 0.676894 218.047 1.76533 219.405 3.46272L302.979 107.819C303.943 109.023 304.548 110.475 304.723 112.008C304.898 113.541 304.637 115.093 303.969 116.484C303.302 117.874 302.255 119.049 300.949 119.871C299.643 120.693 298.132 121.13 296.589 121.131Z" />
			<path
				d="M129.401 121.131C127.858 121.13 126.346 120.693 125.041 119.871C123.735 119.049 122.688 117.874 122.02 116.484C121.353 115.093 121.092 113.541 121.267 112.008C121.442 110.475 122.047 109.023 123.011 107.819L206.6 3.4576C207.272 2.61714 208.104 1.91734 209.047 1.39816C209.989 0.878979 211.025 0.55058 212.095 0.431721C213.165 0.312862 214.247 0.405867 215.281 0.705424C216.315 1.00498 217.28 1.50523 218.12 2.1776C218.96 2.84996 219.66 3.68129 220.179 4.6241C220.699 5.56692 221.027 6.60276 221.146 7.67249C221.265 8.74223 221.172 9.82489 220.872 10.8587C220.573 11.8925 220.072 12.8571 219.4 13.6976L135.801 118.059C135.033 119.018 134.059 119.792 132.951 120.324C131.843 120.856 130.63 121.131 129.401 121.131Z" />
		</g>
	</symbol>
</svg>