<svg xmlns="http://www.w3.org/2000/svg">
	<symbol id="gears" viewBox="0 0 980 971">
		<g>
			<path
				d="M64.3 354.1C69.5 371.8 76.6 388.8 85.6 404.8L59.8 437.3C51.4 447.9 52.3 463.1 61.8 472.6L106.2 517C115.8 526.6 130.9 527.4 141.5 519L173.8 493.5C190.4 503.1 208.1 510.5 226.5 515.8L231.3 557.3C232.9 570.8 244.2 580.8 257.7 580.8H320.5C334 580.8 345.3 570.7 346.9 557.3L351.5 517.2C371.3 512 390.2 504.4 408 494.4L439.2 519.1C449.8 527.5 465 526.6 474.5 517.1L518.9 472.7C528.5 463.1 529.3 448 520.9 437.4L496.6 406.6C506.7 389.1 514.6 370.5 519.8 351.1L557.2 346.8C570.7 345.2 580.7 333.9 580.7 320.4V257.6C580.7 244.1 570.6 232.8 557.2 231.2L520.3 226.9C515.3 207.7 507.7 189.3 498 172L520.7 143.3C529.1 132.7 528.2 117.5 518.7 108L474.4 63.7C464.8 54.1 449.7 53.3 439.1 61.7L411.2 83.8C393.1 73.2 373.8 65.1 353.5 59.6L349.3 23.5C347.9 10.1 336.5 0 323.1 0H260.3C246.8 0 235.5 10.1 233.9 23.5L229.7 59.6C208.9 65.2 189 73.6 170.5 84.6L141.6 61.7C131 53.3 115.8 54.2 106.3 63.7L61.9 108.1C52.3 117.7 51.5 132.8 59.9 143.4L84.1 174C74.4 191.5 67.1 210.1 62.2 229.4L23.5 233.8C10.1 235.4 0 246.7 0 260.2V323C0 336.5 10.1 347.8 23.5 349.4L64.3 354.1ZM291.7 184.3C348.9 184.3 395.5 230.9 395.5 288.1C395.5 345.3 348.9 391.9 291.7 391.9C234.5 391.8 188 345.2 188 288C188 230.8 234.5 184.3 291.7 184.3Z" />
			<path
				d="M912.2 369.5L879.1 341.5C868.9 332.9 853.9 333.3 844.2 342.4L825.9 359.5C810.4 352 794 346.8 777.1 343.7L771.9 318.5C769.3 305.5 757.2 296.4 743.9 297.5L700.7 301.2C687.5 302.4 677 313.2 676.6 326.5L675.8 352.2C659.2 358.2 643.5 366.4 629.2 376.7L607.3 362.2C596.2 354.8 581.3 356.9 572.7 367.1L544.7 400.4C536.1 410.6 536.5 425.6 545.6 435.3L564.7 455.7C558.1 470.6 553.3 486.3 550.6 502.4L523.3 508C510.3 510.6 501.2 522.7 502.3 536L506 579.2C507.2 592.4 518 602.9 531.3 603.3L560.8 604.2C566.2 618.3 573.2 631.6 581.7 644.2L565.2 669.1C557.8 680.2 559.9 695.1 570.1 703.7L603.2 731.7C613.4 740.3 628.4 739.9 638.1 730.8L659.8 710.5C674 717.1 688.9 722.1 704.3 725L710.3 754.6C712.9 767.6 725 776.7 738.3 775.6L781.5 771.9C794.7 770.7 805.2 759.9 805.6 746.6L806.5 717.6C822.3 712 837.2 704.5 851 695.1L874.9 710.9C886 718.3 900.9 716.2 909.5 706L937.5 672.9C946.1 662.7 945.7 647.7 936.6 638L917.4 617.6C924.4 602.7 929.6 586.9 932.5 570.7L958.8 565.3C971.8 562.7 980.9 550.6 979.8 537.3L976.1 494.1C974.9 480.9 964.1 470.4 950.8 470L924.4 469.2C918.9 453.9 911.6 439.3 902.4 425.9L916.8 404.2C924.5 393.1 922.4 378.1 912.2 369.5ZM749.4 619.3C702.7 623.3 661.5 588.5 657.6 541.8C653.6 495.1 688.4 453.9 735.1 450C781.8 446 823 480.8 826.9 527.5C830.8 574.2 796 615.4 749.4 619.3Z" />
			<path
				d="M215.5 735.6C202.3 737 192.1 748.1 192 761.5L191.7 788.1C191.5 801.5 201.4 812.8 214.6 814.5L234.2 817C237.5 828.9 242.1 840.2 248.1 851L235.5 866.6C227.1 877 227.7 891.9 237.1 901.5L255.7 920.5C265.1 930.1 280 931.1 290.6 922.9L306.3 910.8C317.3 917.3 329 922.5 341.2 926L343.3 946.2C344.7 959.4 355.8 969.6 369.2 969.7L395.8 970C409.2 970.2 420.5 960.3 422.2 947.1L424.6 928C437.8 924.7 450.5 919.8 462.4 913.3L477.1 925.2C487.5 933.6 502.4 933 512 923.6L531 905C540.6 895.6 541.6 880.7 533.4 870.1L522.1 855.5C529 843.9 534.4 831.6 538.1 818.7L555.6 816.9C568.8 815.5 579 804.4 579.1 791L579.4 764.4C579.6 751 569.7 739.7 556.5 738L539.5 735.8C536.2 723 531.4 710.6 525.1 699L535.7 686C544.1 675.6 543.5 660.7 534.1 651.1L515.5 632.1C506.1 622.5 491.2 621.5 480.6 629.7L467.9 639.5C455.9 632.2 443.1 626.7 429.6 622.9L427.9 606.4C426.5 593.2 415.4 583 402 582.9L375.4 582.6C362 582.4 350.7 592.3 349 605.5L346.9 621.9C333 625.5 319.7 630.9 307.3 638.1L294.2 627.4C283.8 619 268.9 619.6 259.3 629L240.2 647.7C230.6 657.1 229.6 672 237.8 682.6L249 697.1C242.5 708.7 237.3 721 234 733.9L215.5 735.6ZM387.2 705.5C425.4 705.9 456 737.4 455.5 775.5C455.1 813.7 423.6 844.3 385.5 843.8C347.3 843.4 316.7 811.9 317.2 773.8C317.6 735.7 349 705.1 387.2 705.5Z" />
		</g>
	</symbol>

	<symbol id="gear" viewBox="0 0 906 905">
		<g>
			<path
				d="M603.8 452.7C603.8 411.1 589.1 375.5 559.6 346.1C530.1 316.7 494.6 301.9 453 301.9C411.4 301.9 375.9 316.6 346.4 346.1C316.9 375.6 302.2 411.1 302.2 452.7C302.2 494.3 316.9 529.8 346.4 559.3C375.9 588.8 411.4 603.5 453 603.5C494.6 603.5 530.1 588.8 559.6 559.3C589.1 529.8 603.8 494.3 603.8 452.7ZM905.3 388.5V519.3C905.3 524 903.7 528.5 900.6 532.8C897.5 537.1 893.5 539.7 888.8 540.5L779.8 557C772.3 578.2 764.7 596.1 756.8 610.6C770.5 630.2 791.5 657.3 819.8 691.9C823.7 696.6 825.7 701.5 825.7 706.6C825.7 711.7 823.9 716.2 820.4 720.1C809.8 734.6 790.4 755.8 762.1 783.7C733.8 811.6 715.4 825.5 706.7 825.5C702 825.5 696.9 823.7 691.4 820.2L610.1 756.6C592.8 765.6 575 773.1 556.5 779C550.2 832.4 544.5 868.9 539.4 888.5C536.7 899.5 529.6 905 518.2 905H387.6C382.1 905 377.3 903.3 373.2 900C369.1 896.7 366.8 892.4 366.4 887.3L349.9 779C330.7 772.7 313 765.5 296.9 757.2L213.9 820.2C210 823.7 205.1 825.5 199.2 825.5C193.7 825.5 188.8 823.3 184.5 819C135 774.2 102.6 741.3 87.3 720.1C84.6 716.2 83.2 711.7 83.2 706.6C83.2 701.9 84.8 697.4 87.9 693.1C93.8 684.9 103.8 671.8 117.9 653.9C132 636 142.6 622.2 149.7 612.4C139.1 592.8 131.1 573.3 125.6 554.1L17.8 538.1C12.7 537.3 8.60001 534.9 5.40001 530.7C2.30001 526.6 0.700012 522 0.700012 516.9V386.2C0.700012 381.5 2.30001 377 5.40001 372.7C8.50001 368.4 12.3 365.8 16.6 365L126.1 348.5C131.6 330.4 139.3 312.4 149.1 294.3C133.4 271.9 112.4 244.8 86.1 213C82.2 208.3 80.2 203.6 80.2 198.9C80.2 195 82 190.5 85.5 185.4C95.7 171.3 115.1 150.2 143.5 122.1C172 94 190.5 80 199.2 80C204.3 80 209.4 82 214.5 85.9L295.8 148.9C313.1 139.9 330.9 132.4 349.4 126.5C355.7 73.1 361.4 36.6 366.5 17C369.2 6 376.3 0.5 387.7 0.5H518.5C524 0.5 528.8 2.2 532.9 5.5C537 8.8 539.3 13.1 539.7 18.2L556.2 126.6C575.4 132.9 593.1 140.1 609.2 148.4L692.8 85.4C696.3 81.9 701 80.1 706.9 80.1C712 80.1 716.9 82.1 721.6 86C772.2 132.7 804.6 166.1 818.8 186.1C821.5 189.2 822.9 193.6 822.9 199.1C822.9 203.8 821.3 208.3 818.2 212.6C812.3 220.8 802.3 233.9 788.2 251.8C774.1 269.7 763.5 283.5 756.4 293.3C766.6 312.9 774.7 332.2 780.5 351L888.3 367.5C893.4 368.3 897.5 370.7 900.7 374.9C903.8 378.8 905.3 383.4 905.3 388.5Z" />
		</g>
	</symbol>
</svg>