<svg xmlns="http://www.w3.org/2000/svg">
	<symbol id="gears1" viewBox="0 0 581 581">
		<g>
			<path
				d="M64.3 354.1C69.5 371.8 76.6 388.8 85.6 404.8L59.8 437.3C51.4 447.9 52.3 463.1 61.8 472.6L106.2 517C115.8 526.6 130.9 527.4 141.5 519L173.8 493.5C190.4 503.1 208.1 510.5 226.5 515.8L231.3 557.3C232.9 570.8 244.2 580.8 257.7 580.8H320.5C334 580.8 345.3 570.7 346.9 557.3L351.5 517.2C371.3 512 390.2 504.4 408 494.4L439.2 519.1C449.8 527.5 465 526.6 474.5 517.1L518.9 472.7C528.5 463.1 529.3 448 520.9 437.4L496.6 406.6C506.7 389.1 514.6 370.5 519.8 351.1L557.2 346.8C570.7 345.2 580.7 333.9 580.7 320.4V257.6C580.7 244.1 570.6 232.8 557.2 231.2L520.3 226.9C515.3 207.7 507.7 189.3 498 172L520.7 143.3C529.1 132.7 528.2 117.5 518.7 108L474.4 63.7C464.8 54.1 449.7 53.3 439.1 61.7L411.2 83.8C393.1 73.2 373.8 65.1 353.5 59.6L349.3 23.5C347.9 10.1 336.5 0 323.1 0H260.3C246.8 0 235.5 10.1 233.9 23.5L229.7 59.6C208.9 65.2 189 73.6 170.5 84.6L141.6 61.7C131 53.3 115.8 54.2 106.3 63.7L61.9 108.1C52.3 117.7 51.5 132.8 59.9 143.4L84.1 174C74.4 191.5 67.1 210.1 62.2 229.4L23.5 233.8C10.1 235.4 0 246.7 0 260.2V323C0 336.5 10.1 347.8 23.5 349.4L64.3 354.1ZM291.7 184.3C348.9 184.3 395.5 230.9 395.5 288.1C395.5 345.3 348.9 391.9 291.7 391.9C234.5 391.8 188 345.2 188 288C188 230.8 234.5 184.3 291.7 184.3Z" />
		</g>
	</symbol>
	<symbol id="gears2" viewBox="0 0 478 479">
		<g>
			<path
				d="M410.2 72.5L377.1 44.5C366.9 35.9 351.9 36.3 342.2 45.4L323.9 62.5C308.4 55 292 49.8 275.1 46.7L269.9 21.5C267.3 8.50002 255.2 -0.599982 241.9 0.500018L198.7 4.20003C185.5 5.40003 175 16.2 174.6 29.5L173.8 55.2C157.2 61.2 141.5 69.4 127.2 79.7L105.3 65.2C94.2 57.8 79.3 59.9 70.7 70.1L42.7 103.4C34.1 113.6 34.5 128.6 43.6 138.3L62.7 158.7C56.1 173.6 51.3 189.3 48.6 205.4L21.3 211C8.3 213.6 -0.799994 225.7 0.300006 239L4.00002 282.2C5.20002 295.4 16 305.9 29.3 306.3L58.8 307.2C64.2 321.3 71.2 334.6 79.7 347.2L63.2 372.1C55.8 383.2 57.9 398.1 68.1 406.7L101.2 434.7C111.4 443.3 126.4 442.9 136.1 433.8L157.8 413.5C172 420.1 186.9 425.1 202.3 428L208.3 457.6C210.9 470.6 223 479.7 236.3 478.6L279.5 474.9C292.7 473.7 303.2 462.9 303.6 449.6L304.5 420.6C320.3 415 335.2 407.5 349 398.1L372.9 413.9C384 421.3 398.9 419.2 407.5 409L435.5 375.9C444.1 365.7 443.7 350.7 434.6 341L415.4 320.6C422.4 305.7 427.6 289.9 430.5 273.7L456.8 268.3C469.8 265.7 478.9 253.6 477.8 240.3L474.1 197.1C472.9 183.9 462.1 173.4 448.8 173L422.4 172.2C416.9 156.9 409.6 142.3 400.4 128.9L414.8 107.2C422.5 96.1 420.4 81.1 410.2 72.5ZM247.4 322.3C200.7 326.3 159.5 291.5 155.6 244.8C151.6 198.1 186.4 156.9 233.1 153C279.8 149 321 183.8 324.9 230.5C328.8 277.2 294 318.4 247.4 322.3Z" />
		</g>
	</symbol>
	<symbol id="gears3" viewBox="0 0 389 389">
		<g>
			<path
				d="M24.5 153.6C11.3 155 1.1 166.1 1 179.5L0.699998 206.1C0.499998 219.5 10.4 230.8 23.6 232.5L43.2 235C46.5 246.9 51.1 258.2 57.1 269L44.5 284.6C36.1 295 36.7 309.9 46.1 319.5L64.7 338.5C74.1 348.1 89 349.1 99.6 340.9L115.3 328.8C126.3 335.3 138 340.5 150.2 344L152.3 364.2C153.7 377.4 164.8 387.6 178.2 387.7L204.8 388C218.2 388.2 229.5 378.3 231.2 365.1L233.6 346C246.8 342.7 259.5 337.8 271.4 331.3L286.1 343.2C296.5 351.6 311.4 351 321 341.6L340 323C349.6 313.6 350.6 298.7 342.4 288.1L331.1 273.5C338 261.9 343.4 249.6 347.1 236.7L364.6 234.9C377.8 233.5 388 222.4 388.1 209L388.4 182.4C388.6 169 378.7 157.7 365.5 156L348.5 153.8C345.2 141 340.4 128.6 334.1 117L344.7 104C353.1 93.5999 352.5 78.6999 343.1 69.0999L324.5 50.0999C315.1 40.4999 300.2 39.4999 289.6 47.6999L276.9 57.4999C264.9 50.1999 252.1 44.6999 238.6 40.8999L236.9 24.4C235.5 11.2 224.4 0.99995 211 0.89995L184.4 0.599901C171 0.399901 159.7 10.2999 158 23.4999L155.9 39.8999C142 43.4999 128.7 48.8999 116.3 56.0999L103.2 45.3999C92.8 36.9999 77.9 37.5999 68.3 46.9999L49.2 65.6999C39.6 75.0999 38.6 89.9999 46.8 100.6L58 115.1C51.5 126.7 46.3 139 43 151.9L24.5 153.6ZM196.2 123.5C234.4 123.9 265 155.4 264.5 193.5C264.1 231.7 232.6 262.3 194.5 261.8C156.3 261.4 125.7 229.9 126.2 191.8C126.6 153.7 158 123.1 196.2 123.5Z" />
		</g>
	</symbol>

	<symbol id="gear" viewBox="0 0 906 905">
		<g>
			<path
				d="M603.8 452.7C603.8 411.1 589.1 375.5 559.6 346.1C530.1 316.7 494.6 301.9 453 301.9C411.4 301.9 375.9 316.6 346.4 346.1C316.9 375.6 302.2 411.1 302.2 452.7C302.2 494.3 316.9 529.8 346.4 559.3C375.9 588.8 411.4 603.5 453 603.5C494.6 603.5 530.1 588.8 559.6 559.3C589.1 529.8 603.8 494.3 603.8 452.7ZM905.3 388.5V519.3C905.3 524 903.7 528.5 900.6 532.8C897.5 537.1 893.5 539.7 888.8 540.5L779.8 557C772.3 578.2 764.7 596.1 756.8 610.6C770.5 630.2 791.5 657.3 819.8 691.9C823.7 696.6 825.7 701.5 825.7 706.6C825.7 711.7 823.9 716.2 820.4 720.1C809.8 734.6 790.4 755.8 762.1 783.7C733.8 811.6 715.4 825.5 706.7 825.5C702 825.5 696.9 823.7 691.4 820.2L610.1 756.6C592.8 765.6 575 773.1 556.5 779C550.2 832.4 544.5 868.9 539.4 888.5C536.7 899.5 529.6 905 518.2 905H387.6C382.1 905 377.3 903.3 373.2 900C369.1 896.7 366.8 892.4 366.4 887.3L349.9 779C330.7 772.7 313 765.5 296.9 757.2L213.9 820.2C210 823.7 205.1 825.5 199.2 825.5C193.7 825.5 188.8 823.3 184.5 819C135 774.2 102.6 741.3 87.3 720.1C84.6 716.2 83.2 711.7 83.2 706.6C83.2 701.9 84.8 697.4 87.9 693.1C93.8 684.9 103.8 671.8 117.9 653.9C132 636 142.6 622.2 149.7 612.4C139.1 592.8 131.1 573.3 125.6 554.1L17.8 538.1C12.7 537.3 8.60001 534.9 5.40001 530.7C2.30001 526.6 0.700012 522 0.700012 516.9V386.2C0.700012 381.5 2.30001 377 5.40001 372.7C8.50001 368.4 12.3 365.8 16.6 365L126.1 348.5C131.6 330.4 139.3 312.4 149.1 294.3C133.4 271.9 112.4 244.8 86.1 213C82.2 208.3 80.2 203.6 80.2 198.9C80.2 195 82 190.5 85.5 185.4C95.7 171.3 115.1 150.2 143.5 122.1C172 94 190.5 80 199.2 80C204.3 80 209.4 82 214.5 85.9L295.8 148.9C313.1 139.9 330.9 132.4 349.4 126.5C355.7 73.1 361.4 36.6 366.5 17C369.2 6 376.3 0.5 387.7 0.5H518.5C524 0.5 528.8 2.2 532.9 5.5C537 8.8 539.3 13.1 539.7 18.2L556.2 126.6C575.4 132.9 593.1 140.1 609.2 148.4L692.8 85.4C696.3 81.9 701 80.1 706.9 80.1C712 80.1 716.9 82.1 721.6 86C772.2 132.7 804.6 166.1 818.8 186.1C821.5 189.2 822.9 193.6 822.9 199.1C822.9 203.8 821.3 208.3 818.2 212.6C812.3 220.8 802.3 233.9 788.2 251.8C774.1 269.7 763.5 283.5 756.4 293.3C766.6 312.9 774.7 332.2 780.5 351L888.3 367.5C893.4 368.3 897.5 370.7 900.7 374.9C903.8 378.8 905.3 383.4 905.3 388.5Z" />
		</g>
	</symbol>
</svg>