<svg xmlns="http://www.w3.org/2000/svg">
	<symbol id="star" viewBox="0 0 510 487">
		<g>
			<path
				d="M508.819 184.25C506.705 177.763 501.096 173.032 494.34 172.047L340.067 149.647L271.075 9.83479C265.036 -2.40457 244.965 -2.40457 238.926 9.83479L169.934 149.647L15.6611 172.047C8.90523 173.032 3.29627 177.763 1.18171 184.25C-0.932847 190.737 0.823314 197.851 5.71547 202.618L117.339 311.428L90.9788 465.11C89.832 471.83 92.5916 478.622 98.111 482.636C103.648 486.686 110.96 487.188 116.981 483.998L255.001 411.458L393.003 483.998C395.619 485.378 398.486 486.059 401.335 486.059C405.045 486.059 408.754 484.912 411.872 482.636C417.392 478.622 420.151 471.83 419.004 465.11L392.644 311.428L504.268 202.618C509.16 197.851 510.916 190.737 508.819 184.25V184.25ZM360.872 292.362C356.661 296.465 354.725 302.415 355.711 308.221L377.52 435.399L263.315 375.367C260.735 373.987 257.868 373.288 255.001 373.288C252.133 373.288 249.266 373.969 246.668 375.349L132.464 435.381L154.272 308.203C155.258 302.397 153.34 296.465 149.111 292.344L56.7337 202.296L184.396 183.748C190.238 182.906 195.273 179.233 197.89 173.946L255.001 58.2546L312.094 173.946C314.71 179.233 319.746 182.906 325.587 183.748L453.25 202.296L360.872 292.362Z" />
		</g>
	</symbol>

	<symbol id="list" viewBox="0 0 492 512">
		<g>
			<path
				d="M56.6689 419.622V55.9496H350.383V361.374L406.343 315.152V27.9748C406.343 12.5277 393.826 0 378.379 0H28.6941C13.247 0 0.730225 12.5277 0.730225 27.9748V447.586C0.730225 463.033 13.247 475.561 28.6941 475.561H272.798L233.254 419.622H56.6689Z" />
			<path
				d="M486.891 300.762C481.738 295.903 473.818 295.675 468.393 300.141L340.088 406.179L254.584 354.881C248.909 351.483 241.643 352.496 237.122 357.376C232.634 362.213 232.143 369.544 235.967 374.947L328.628 506.074C331.221 509.745 335.437 511.946 339.925 511.989C339.968 511.989 340.012 511.989 340.055 511.989C344.5 511.989 348.694 509.887 351.33 506.27L488.59 319.194C492.73 313.518 492.021 305.62 486.891 300.762Z" />
			<path
				d="M287.461 97.9118H119.601C104.154 97.9118 91.6375 110.439 91.6375 125.887C91.6375 141.334 104.154 153.861 119.601 153.861H287.45C302.897 153.861 315.403 141.334 315.403 125.887C315.403 110.439 302.908 97.9118 287.461 97.9118Z" />
			<path
				d="M287.461 181.825H119.601C104.154 181.825 91.6375 194.353 91.6375 209.8C91.6375 225.247 104.154 237.775 119.601 237.775H287.45C302.897 237.775 315.403 225.258 315.403 209.8C315.436 194.353 302.908 181.825 287.461 181.825Z" />
			<path
				d="M287.461 265.75H119.601C104.154 265.75 91.6375 278.277 91.6375 293.725C91.6375 309.172 104.154 321.699 119.601 321.699H287.45C302.897 321.699 315.403 309.172 315.403 293.725C315.436 278.277 302.908 265.75 287.461 265.75Z" />
		</g>
	</symbol>

	<symbol id="diamond" viewBox="0 0 980 842">
		<g>
			<path
				d="M169 2.31997C161.22 4.31997 155.83 7.30995 151.63 11.9C149.83 13.9 115.1 73.7799 74.38 145.04C-6.06001 285.35 -4.46 282.16 3.73 297.33C10.52 309.5 471 836.26 477.39 838.86C484.97 842.05 495.95 841.85 503.74 838.66C507.73 837.06 563.62 774.39 677.8 643.45C770.01 537.46 874.2 417.89 909.33 377.77C944.26 337.65 974.6 302.12 976.8 298.93C979.79 294.34 980.39 290.35 979.79 281.96C979.19 271.78 974.6 263 915.52 160.2C821.5 -3.87004 828.29 6.30997 811.53 2.51997C802.34 0.31997 177.98 0.31997 169 2.31997ZM411.12 76.77C405.13 83.76 374.59 119.29 343.06 155.61C311.72 192.14 285.57 221.28 284.98 220.48C284.18 219.28 226.69 77.96 222.5 66.78C221.7 64.98 242.26 64.38 321.7 64.38H421.9L411.12 76.77ZM758.03 67.98C757.23 69.98 743.06 105.51 726.09 147.02L695.55 222.47L633.07 149.81C598.74 110.09 567.8 74.36 564.61 70.77L558.42 64.38H658.82C754.84 64.39 759.03 64.59 758.03 67.98ZM565.01 167.19L637.27 251.02L564.41 251.62C524.49 251.82 458.42 251.82 417.7 251.62L343.65 251.02L416.11 166.79C455.83 120.48 489.37 82.76 490.56 82.96C491.76 83.16 525.29 121.08 565.01 167.19ZM200.14 178.77L229.48 251.03L158.42 251.63C119.5 251.83 87.16 251.83 86.76 251.43C85.76 250.43 168.2 106.32 169.8 106.32C170.39 106.31 184.17 138.84 200.14 178.77ZM854.44 179.76C876.79 218.68 894.56 250.82 893.96 251.22C893.56 251.62 861.22 251.82 822.3 251.62L751.44 251.02L778.98 183.15C812.52 100.71 810.52 105.3 812.52 107.5C813.52 108.51 832.28 141.04 854.44 179.76ZM319.7 472.98C355.23 560.61 385.57 635.46 387.17 639.25L389.97 646.24L384.98 641.25C374.6 630.87 102.14 317.09 102.14 315.49C102.14 314.69 136.47 313.89 178.59 313.89H255.04L319.7 472.98ZM657.03 315.49C657.03 316.49 620.5 406.91 575.99 516.69C531.48 626.27 494.15 718.29 492.95 721.08L490.95 726.07L488.36 721.08C485.17 714.89 323.69 316.88 323.69 315.09C323.69 314.49 398.74 313.89 490.36 313.89C581.98 313.89 657.03 314.7 657.03 315.49ZM877.19 318.69C871.6 326.27 593.15 645.24 592.15 645.24C591.35 645.24 588.16 653.42 663.81 466.99C696.35 387.15 723.7 319.89 724.9 317.89C726.9 314.1 729.49 313.9 803.94 313.9H880.99L877.19 318.69Z" />
		</g>
	</symbol>
</svg>