<svg xmlns="http://www.w3.org/2000/svg">
	<symbol id="rocket" viewBox="0 0 510 981" width="30" height="58">
		<g>
			<path
				d="M507.5 559.4C494.1 540.5 479.7 523.4 464.5 508.2C471.7 474 475.3 439.2 475.3 404.6C475.3 238.8 393.3 84.8 261.4 2.69998C257.7 0.399976 252.9 0.399976 249.2 2.69998C117.3 84.8 35.3 238.8 35.3 404.6C35.3 438.2 38.7 472 45.4 505.1C30.3 520.2 15.9 537.4 2.40001 556.3C0.300007 559.2 -0.299984 562.9 0.800016 566.4L75 810.9C76.2 815 79.6 818 83.8 818.9C88 819.7 92.3 818.2 95 814.9C115.4 790.3 143.6 771 175.6 759.4V772.3C175.6 778.7 180.8 783.9 187.2 783.9H322.8C329.2 783.9 334.4 778.7 334.4 772.3V762.5C366.4 774.1 394.6 793.5 415 818C417.2 820.7 420.5 822.2 423.9 822.2C424.6 822.2 425.4 822.1 426.2 822C430.4 821.1 433.7 818.1 435 814L509.1 569.5C510.2 566.1 509.6 562.3 507.5 559.4ZM332.4 329.5C317 357.8 287.5 375.3 255.4 375.3C224.9 375.3 197 359.7 180.9 333.6C172.4 319.7 167.9 303.9 167.9 287.7C167.9 239.4 207.2 200.2 255.4 200.2C303.7 200.2 342.9 239.5 342.9 287.7C342.9 302.4 339.3 316.8 332.4 329.5ZM360 666.1C358.1 670.4 353.8 673 349.4 673C347.8 673 346.2 672.7 344.6 672C338.8 669.4 336.2 662.5 338.8 656.7C411.3 495.6 400.8 351.8 400.7 350.3C400.2 343.9 404.9 338.3 411.3 337.8C417.8 337.4 423.2 342 423.8 348.4C424.3 354.5 434.9 499.3 360 666.1Z" />
			<path
				d="M255.4 223.5C219.9 223.5 191 252.4 191 287.9C191 299.7 194.3 311.4 200.6 321.6C212.5 340.8 232.9 352.3 255.4 352.3C279.1 352.3 300.7 339.4 312 318.6C317.1 309.3 319.7 298.7 319.7 287.9C319.7 252.3 290.9 223.5 255.4 223.5Z" />
			<path
				d="M321.2 799H187.7C183.8 799 180.2 800.9 178 804.2C175.9 807.4 175.5 811.5 177 815.1L243.8 973.9C245.6 978.2 249.8 981 254.5 981C259.2 981 263.4 978.2 265.2 973.9L332 815.1C333.5 811.5 333.1 807.4 331 804.2C328.7 801 325.1 799 321.2 799ZM254.4 939.5L205 822.2H303.7L254.4 939.5Z" />
		</g>
	</symbol>

	<symbol id="mobile" viewBox="0 0 602 980" width="28" height="45">
		<g>
			<path
				d="M571.9,81.6c0-10.7-8.6-19.3-19.3-19.3h-105c-10.7,0-19.3,8.6-19.3,19.3v0.5c0,10.7,8.6,19.3,19.3,19.3h105c10.7,0,19.3-8.6,19.3-19.3V81.6z" />
			<g>
				<path
					d="M523.1 0H78.9C35.6 0 0.5 35.1 0.5 78.4V901.6C0.5 944.9 35.6 980 78.9 980H523.2C566.5 980 601.6 944.8 601.6 901.6V78.4C601.5 35.1 566.4 0 523.1 0ZM301 950.6C277.6 950.6 258.5 931.5 258.5 908.1C258.5 884.7 277.6 865.6 301 865.6C324.4 865.6 343.5 884.7 343.5 908.1C343.5 931.5 324.4 950.6 301 950.6ZM536.2 823.2C536.2 830.4 530.3 836.3 523.1 836.3H78.9C71.7 836.3 65.8 830.4 65.8 823.2V156.8C65.8 149.6 71.7 143.7 78.9 143.7H523.2C530.4 143.7 536.3 149.6 536.3 156.8V823.2H536.2Z" />
				<path
					d="M258.5 679.5C249.5 679.5 242.2 686.8 242.2 695.8C242.2 699.1 243.2 702.1 244.8 704.6L218 739.2C216.4 738.6 214.7 738.3 212.8 738.3C209.1 738.3 205.7 739.6 203 741.6L169.8 719.4C170.1 718.1 170.4 716.8 170.4 715.4C170.4 706.4 163.1 699.1 154.1 699.1C145.1 699.1 137.8 706.4 137.8 715.4C137.8 718.3 138.6 721 140 723.4L114.5 752.6C112.6 751.8 110.6 751.4 108.4 751.4C99.4 751.4 92.1 758.7 92.1 767.7C92.1 776.7 99.4 784 108.4 784C117.4 784 124.7 776.7 124.7 767.7C124.7 764.8 123.9 762.1 122.5 759.7L148 730.6C149.9 731.3 151.9 731.8 154.1 731.8C157.8 731.8 161.2 730.5 163.9 728.5L197.1 750.7C196.8 752 196.5 753.3 196.5 754.7C196.5 763.7 203.8 771 212.8 771C221.8 771 229.1 763.7 229.1 754.7C229.1 751.4 228.1 748.4 226.5 745.9L253.4 711.4C255 712 256.7 712.3 258.6 712.3C267.6 712.3 274.9 705 274.9 696C274.9 686.8 267.5 679.5 258.5 679.5Z" />
				<path
					d="M183.4 411.6V352.8C147.3 352.8 118.1 382.1 118.1 418.1H176.9C180.5 418.1 183.4 415.2 183.4 411.6Z" />
				<path
					d="M247.9 429C253.8 392.7 229.7 360.8 196.5 354.1V418.1C196.5 425.3 190.6 431.2 183.4 431.2H119.4C126.1 464.4 158 488.4 194.3 482.6C221.4 478.2 243.5 456.1 247.9 429Z" />
				<path d="M196.5 235.2H157.3V313.6H196.5V235.2Z" />
				<path d="M144.2 274.4H105V313.6H144.2V274.4Z" />
				<path d="M248.7 182.9H209.5V313.6H248.7V182.9Z" />
				<path
					d="M313.9 287.5H483.9C491 287.5 496.8 281.7 496.8 274.6V274.4C496.8 267.3 491 261.5 483.9 261.5H313.9C306.8 261.5 301 267.3 301 274.4V274.6C301 281.7 306.8 287.5 313.9 287.5Z" />
				<path
					d="M187.4 654V640.1C205.8 637.7 216.6 624.5 216.6 609.1C216.6 575.2 165.7 578.4 165.7 560.4C165.7 552.9 172.8 547.6 181.9 547.6C195.4 547.6 205.6 557 205.6 557L214.1 541.1C214.1 541.1 205 531.6 187.5 530.1V516.2H174.5V530.4C157.7 533.1 146.1 545.2 146.1 560.8C146.1 593.3 197.2 591.5 197.2 609.6C197.2 618.4 189.8 622.6 181.6 622.6C166.5 622.6 154.9 611.3 154.9 611.3L144.3 625.9C144.3 625.9 155 637.9 174.5 640.1V654H187.4Z" />
				<path
					d="M484.1 522.7H314.1C307 522.7 301.2 528.5 301.2 535.6V535.9C301.2 543 307 548.8 314.1 548.8H484.1C491.3 548.8 497 543 497 535.9V535.6C497 528.5 491.2 522.7 484.1 522.7Z" />
				<path
					d="M484.1 431.2H314.1C307 431.2 301.2 437 301.2 444.1V444.3C301.2 451.4 307 457.2 314.1 457.2H484.1C491.3 457.2 497 451.4 497 444.3V444.1C497 437 491.2 431.2 484.1 431.2Z" />
				<path
					d="M313.9 222.1H483.9C491 222.1 496.8 216.3 496.8 209.2V208.9C496.8 201.8 491 196 483.9 196H313.9C306.8 196 301 201.8 301 208.9V209.2C301 216.3 306.8 222.1 313.9 222.1Z" />
				<path
					d="M484.1 744.8H314.1C307 744.8 301.2 750.6 301.2 757.7V757.9C301.2 765 307 770.8 314.1 770.8H484.1C491.3 770.8 497 765 497 757.9V757.7C497 750.6 491.2 744.8 484.1 744.8Z" />
				<path
					d="M484.1 679.5H314.1C307 679.5 301.2 685.3 301.2 692.4V692.7C301.2 699.8 307 705.6 314.1 705.6H484.1C491.3 705.6 497 699.8 497 692.7V692.4C497 685.3 491.2 679.5 484.1 679.5Z" />
				<path
					d="M484.1 588H314.1C307 588 301.2 593.8 301.2 600.9V601.2C301.2 608.3 307 614.1 314.1 614.1H484.1C491.3 614.1 497 608.3 497 601.2V600.9C497 593.8 491.2 588 484.1 588Z" />
				<path
					d="M484.1 365.9H314.1C307 365.9 301.2 371.7 301.2 378.8V379.1C301.2 386.2 307 392 314.1 392H484.1C491.3 392 497 386.2 497 379.1V378.8C497 371.7 491.2 365.9 484.1 365.9Z" />
			</g>
		</g>
	</symbol>

	<symbol id="heart" viewBox="0 0 980 776" width="54" height="44">
		<g>
			<path
				d="M980 263.6C980 291.5 975.4 319 966.6 345.4C925 533.7 565 761.6 549.7 771.3C544.9 774.3 539.5 775.8 534.1 775.8C528.6 775.8 523.2 774.4 518.4 771.3C514.3 768.6 412.8 704.6 310 616.6C297.7 606 296.4 587.7 306.7 575.4C317.3 563.2 335.6 561.8 347.9 572.1C424.5 637.6 502 690.5 534.1 711.8C642.2 641.3 880.9 462 910.2 329.8C917.9 306.4 921.3 285.2 921.3 263.6C921.3 188.5 880.4 119.3 814.6 83C730.5 36.4 618 57.9 556.5 132C545.5 145.4 522.7 145.4 511.5 132C449.8 57.8 337.4 36.5 253.4 82.9C187.4 119.2 146.5 188.4 146.5 263.4C146.5 284.8 150.1 306.2 156.9 326.8C161.2 346.1 169.5 364.9 180.1 384.5H350.6L409.1 249.9C414.1 238.4 426.1 231.1 438.4 232.4C451 233.5 461.4 242.5 464.2 254.8L507.3 437.1L563.1 345.7C568.4 337 577.8 331.7 588 331.7H693.9C710 331.7 723.1 344.8 723.1 360.9C723.1 377 710 390.1 693.9 390.1H604.5L520.5 528.1C515.1 536.9 505.7 542.1 495.6 542.1C494 542.1 492.5 542 491 541.7C479.3 539.8 470 531.1 467.2 519.6L427.8 353.6L396.7 425.3C392 436 381.5 442.9 369.9 442.9H29.2C13.2 442.9 0 429.8 0 413.7C0 397.6 13.2 384.5 29.2 384.5H114.8C108.7 370 103.8 355.9 100.8 342.3C92.6 318.6 88.2 291.1 88.2 263.4C88.2 167.1 140.6 78.3 225.2 31.7C323.3 -22.6 453 -5.50001 534 70.7C614.8 -5.50001 744.5 -22.5 842.7 31.7C927.5 78.4 980 167.2 980 263.6Z" />
		</g>
	</symbol>
</svg>