<svg width="188" height="188" viewBox="0 0 188 188" fill="none" xmlns="http://www.w3.org/2000/svg">
	<path
		d="M95.25 100.375L81.5834 140.25H81.5417L70.9584 170.708C71.7084 170.917 72.4167 171.083 73.1667 171.292H73.2917C80.02 173.086 86.9533 173.996 93.9167 174C97.3895 174.026 100.859 173.775 104.292 173.25C108.886 172.674 113.418 171.684 117.833 170.292C118.917 169.958 120 169.583 121.083 169.208C119.917 166.708 117.417 161.167 117.292 160.917L95.25 100.375Z"
		fill="#303263" stroke="#303263" stroke-width="0.00213333" />
	<path
		d="M21 62.5416C16.8333 71.9583 14 83.5416 14 94C14 96.625 14.125 99.25 14.375 101.833C17.25 131.5 36.4167 156.417 62.75 167.625C63.8333 168.083 64.9583 168.542 66.0833 168.958L27.3333 62.5833C24 62.4583 23.375 62.6666 21 62.5416Z"
		fill="#303263" stroke="#303263" stroke-width="0.00213333" />
	<path
		d="M166.583 60.4166C164.791 56.5574 162.686 52.8507 160.292 49.3333C159.625 48.3333 158.875 47.3333 158.167 46.3333C149.138 34.2156 136.878 24.8869 122.792 19.4166C113.604 15.8228 103.824 13.9855 93.9583 14C82.0074 14.0002 70.2091 16.6849 59.4347 21.8558C48.6603 27.0266 39.185 34.5516 31.7084 43.875C28.9999 47.2324 26.5617 50.7991 24.4167 54.5416C30.3334 54.5833 37.6667 54.5833 38.5 54.5833C46.0417 54.5833 57.6667 53.6666 57.6667 53.6666C61.5834 53.4166 62 59.125 58.125 59.5833C58.125 59.5833 54.2084 60.0416 49.875 60.25L76.0834 138.167L91.8334 90.9583L80.6667 60.2916C76.75 60.0833 73.125 59.625 73.125 59.625C69.2084 59.4166 69.7084 53.4583 73.5417 53.7083C73.5417 53.7083 85.4167 54.625 92.5 54.625C100.042 54.625 111.667 53.7083 111.667 53.7083C115.542 53.4583 116.042 59.1666 112.125 59.625C112.125 59.625 108.25 60.0833 103.917 60.2916L129.875 137.625L137.083 113.625C140.708 104.292 142.542 96.5833 142.542 90.4166C142.542 81.5416 139.333 75.375 136.583 70.5833C132.958 64.625 129.542 59.625 129.542 53.75C129.542 47.125 134.542 40.9583 141.625 40.9583H142.542C153.458 40.6666 157.042 51.5 157.5 58.875V59.125C157.667 62.125 157.542 64.3333 157.542 66.9583C157.542 74.2083 156.167 82.4166 152.083 92.7083L135.833 139.708L126.542 167.083C127.292 166.75 128 166.417 128.75 166.042C152.375 154.625 169.583 131.875 173.208 104.917C173.746 101.331 174.01 97.7092 174 94.0833C174.016 82.4541 171.484 70.9626 166.583 60.4166V60.4166Z"
		fill="#303263" stroke="#303263" stroke-width="0.00213333" />
	<path
		d="M94 7.33329C113.995 7.3436 133.372 14.2655 148.848 26.9263C164.324 39.5871 174.948 57.2084 178.92 76.8051C182.891 96.4017 179.967 116.769 170.641 134.456C161.316 152.144 146.163 166.064 127.75 173.858C106.57 182.809 82.7022 182.98 61.3965 174.333C40.0908 165.686 23.0927 148.93 14.1417 127.75C5.19063 106.57 5.01981 82.7021 13.6668 61.3964C22.3138 40.0907 39.0703 23.0927 60.25 14.1416C70.9271 9.62371 82.4064 7.308 94 7.33329M94 0.666626C42.4542 0.666626 0.666687 42.4541 0.666687 94C0.666687 145.546 42.4542 187.333 94 187.333C145.546 187.333 187.333 145.546 187.333 94C187.333 42.4541 145.546 0.666626 94 0.666626Z"
		fill="#303263" />
	<path
		d="M94 7.33329C113.995 7.3436 133.372 14.2655 148.848 26.9263C164.324 39.5871 174.948 57.2084 178.92 76.8051C182.891 96.4017 179.967 116.769 170.641 134.456C161.316 152.144 146.163 166.064 127.75 173.858C106.57 182.809 82.7022 182.98 61.3965 174.333C40.0908 165.686 23.0927 148.93 14.1417 127.75C5.19063 106.57 5.01981 82.7021 13.6668 61.3964C22.3138 40.0907 39.0703 23.0927 60.25 14.1416C70.9271 9.62371 82.4064 7.308 94 7.33329M94 0.666626C42.4542 0.666626 0.666687 42.4541 0.666687 94C0.666687 145.546 42.4542 187.333 94 187.333C145.546 187.333 187.333 145.546 187.333 94C187.333 42.4541 145.546 0.666626 94 0.666626Z"
		stroke="#303263" stroke-width="0.00213333" />
</svg>