<svg width="16" height="16" viewBox="0 0 16 16" fill="none" xmlns="http://www.w3.org/2000/svg">
<g clip-path="url(#clip0_13_18)">
<path d="M8.10637 8.5426L6.94326 11.9362H6.93971L6.039 14.5284C6.10283 14.5462 6.16311 14.5603 6.22694 14.5781H6.23758C6.8102 14.7308 7.40027 14.8082 7.9929 14.8086C8.28846 14.8108 8.58373 14.7894 8.8759 14.7447C9.26688 14.6957 9.65258 14.6115 10.0283 14.493C10.1206 14.4646 10.2128 14.4326 10.3049 14.4007C10.2057 14.188 9.99292 13.7164 9.98229 13.6951L8.10637 8.5426Z" fill="#8388FF" stroke="#8388FF" stroke-width="0.00213333"/>
<path d="M1.78721 5.32263C1.4326 6.12405 1.19147 7.10987 1.19147 7.99994C1.19147 8.22335 1.20211 8.44675 1.22338 8.66658C1.46806 11.1914 3.09927 13.312 5.3404 14.2659C5.4326 14.3049 5.52834 14.3439 5.62409 14.3793L2.32622 5.32618C2.04253 5.31554 1.98934 5.33327 1.78721 5.32263Z" fill="#8388FF" stroke="#8388FF" stroke-width="0.00213333"/>
<path d="M14.1773 5.14188C14.0248 4.81344 13.8456 4.49798 13.6419 4.19863C13.5851 4.11352 13.5213 4.02841 13.461 3.94331C12.6926 2.91201 11.6492 2.11808 10.4504 1.65252C9.66841 1.34667 8.83607 1.1903 7.99644 1.19154C6.97934 1.19155 5.97523 1.42004 5.05826 1.86011C4.14129 2.30018 3.33488 2.94061 2.69857 3.73409C2.46806 4.01983 2.26056 4.32337 2.078 4.64188C2.58155 4.64543 3.20566 4.64543 3.27658 4.64543C3.91843 4.64543 4.90779 4.56742 4.90779 4.56742C5.24113 4.54614 5.27658 5.03196 4.94679 5.07097C4.94679 5.07097 4.61347 5.10997 4.24467 5.12771L6.47517 11.7589L7.81559 7.74118L6.86524 5.13125C6.5319 5.11352 6.22339 5.07451 6.22339 5.07451C5.89006 5.05678 5.93262 4.54969 6.25885 4.57097C6.25885 4.57097 7.26949 4.64898 7.87233 4.64898C8.5142 4.64898 9.50356 4.57097 9.50356 4.57097C9.83335 4.54969 9.8759 5.0355 9.54254 5.07451C9.54254 5.07451 9.21275 5.11352 8.84399 5.13125L11.0532 11.7128L11.6666 9.67026C11.9751 8.87596 12.1312 8.2199 12.1312 7.69508C12.1312 6.93976 11.8581 6.41494 11.6241 6.00714C11.3156 5.50005 11.0248 5.07451 11.0248 4.57451C11.0248 4.01068 11.4504 3.48586 12.0532 3.48586H12.1312C13.0602 3.46103 13.3653 4.38302 13.4042 5.01068V5.03196C13.4185 5.28728 13.4078 5.47522 13.4078 5.69863C13.4078 6.31565 13.2908 7.01423 12.9432 7.89011L11.5602 11.8901L10.7695 14.2199C10.8333 14.1915 10.8936 14.1632 10.9574 14.1313C12.9681 13.1596 14.4326 11.2235 14.7411 8.92915C14.7869 8.62396 14.8093 8.31572 14.8085 8.00714C14.8099 7.01742 14.5944 6.03942 14.1773 5.14188Z" fill="#8388FF" stroke="#8388FF" stroke-width="0.00213333"/>
<path d="M8.00002 0.624138C9.70173 0.625016 11.3508 1.21411 12.6679 2.29163C13.985 3.36914 14.8892 4.86883 15.2273 6.53663C15.5652 8.20443 15.3164 9.93781 14.5227 11.4431C13.729 12.9485 12.4394 14.1331 10.8724 14.7965C9.06981 15.5582 7.03851 15.5728 5.22526 14.8369C3.41201 14.101 1.96536 12.6749 1.20357 10.8724C0.441779 9.06982 0.427241 7.03851 1.16316 5.22525C1.89907 3.412 3.32516 1.96536 5.12768 1.20357C6.03637 0.819068 7.01333 0.621986 8.00002 0.624138ZM8.00002 0.0567627C3.61315 0.0567627 0.0567627 3.61314 0.0567627 8.00003C0.0567627 12.3869 3.61315 15.9433 8.00002 15.9433C12.3869 15.9433 15.9433 12.3869 15.9433 8.00003C15.9433 3.61314 12.3869 0.0567627 8.00002 0.0567627Z" fill="#8388FF"/>
<path d="M8.00002 0.624138C9.70173 0.625016 11.3508 1.21411 12.6679 2.29163C13.985 3.36914 14.8892 4.86883 15.2273 6.53663C15.5652 8.20443 15.3164 9.93781 14.5227 11.4431C13.729 12.9485 12.4394 14.1331 10.8724 14.7965C9.06981 15.5582 7.03851 15.5728 5.22526 14.8369C3.41201 14.101 1.96536 12.6749 1.20357 10.8724C0.441779 9.06982 0.427241 7.03851 1.16316 5.22525C1.89907 3.412 3.32516 1.96536 5.12768 1.20357C6.03637 0.819068 7.01333 0.621986 8.00002 0.624138ZM8.00002 0.0567627C3.61315 0.0567627 0.0567627 3.61314 0.0567627 8.00003C0.0567627 12.3869 3.61315 15.9433 8.00002 15.9433C12.3869 15.9433 15.9433 12.3869 15.9433 8.00003C15.9433 3.61314 12.3869 0.0567627 8.00002 0.0567627Z" stroke="#8388FF" stroke-width="0.00213333"/>
</g>
<defs>
<clipPath id="clip0_13_18">
<rect width="16" height="16" fill="white"/>
</clipPath>
</defs>
</svg>
